# AST/ASF file generated using VICON BodyLanguage
# -----------------------------------------------
:version 1.10
:name VICON
:units
  mass 1.0
  length 0.45
  angle deg
:documentation
   .ast/.asf automatically generated from VICON data using
   VICON BodyBuilder and BodyLanguage model FoxedUp or BRILLIANT.MOD
:root
   order TX TY TZ RX RY RZ
   axis XYZ
   position 0 0 0  
   orientation 0 0 0 
:bonedata
  begin
     id 1 
     name lhipjoint
     direction 0.576517 -0.752066 0.319413 
     length 2.45433 
     axis 0 0 0  XYZ
  end
  begin
     id 2 
     name lfemur
     direction 0.34202 -0.939693 0  
     length 7.54459  
     axis 0 0 20  XYZ
    dof rx ry rz
    limits (-160.0 20.0)
           (-70.0 70.0)
           (-60.0 70.0)
  end
  begin
     id 3 
     name ltibia
     direction 0.34202 -0.939693 0   
     length 7.73986   
     axis 0 0 20   XYZ
    dof rx
    limits (-10.0 170.0)
  end
  begin
     id 4 
     name lfoot
     direction 0.090693 -0.249177 0.964202   
     length 2.28437   
     axis -90 7.62852e-016 20   XYZ
    dof rx rz
    limits (-45.0 90.0)
           (-70.0 20.0)
  end
  begin
     id 5 
     name ltoes
     direction 1.5356e-011 -4.21928e-011 1   
     length 1.14243   
     axis -90 7.62852e-016 20   XYZ
    dof rx
    limits (-90.0 20.0)
  end
  begin
     id 6 
     name rhipjoint
     direction -0.573937 -0.753736 0.320122   
     length 2.44889  
     axis 0 0 0  XYZ 
  end
  begin
     id 7 
     name rfemur
     direction -0.34202 -0.939693 0   
     length 7.50166   
     axis 0 0 -20   XYZ
    dof rx ry rz
    limits (-160.0 20.0)
           (-70.0 70.0)
           (-70.0 60.0)
  end
  begin
     id 8 
     name rtibia
     direction -0.34202 -0.939693 0   
     length 7.54266   
     axis 0 0 -20   XYZ
    dof rx
    limits (-10.0 170.0)
 end
 begin
     id 9 
     name rfoot
     direction -0.114017 -0.31326 0.942798   
     length 2.34212  
     axis -90 -7.62852e-016 -20   XYZ
    dof rx rz
    limits (-45.0 90.0)
           (-20.0 70.0)
  end
  begin
     id 10 
     name rtoes
     direction -1.53557e-011 -4.21867e-011 1   
     length 1.16246   
     axis -90 -7.62852e-016 -20   XYZ
    dof rx
    limits (-90.0 20.0)
  end
  begin
     id 11 
     name lowerback
     direction -0.0228371 0.999155 -0.034167   
     length 2.0537   
     axis 0 0 0   XYZ
    dof rx ry rz
    limits (-20.0 45.0)
           (-30.0 30.0)
           (-30.0 30.0)
  end
  begin
     id 12 
     name upperback
     direction 0.0198981 0.999794 0.00389455   
     length 2.05302   
     axis 0 0 0   XYZ
    dof rx ry rz
    limits (-20.0 45.0)
           (-30.0 30.0)
           (-30.0 30.0)
  end
  begin
     id 13 
     name thorax
     direction 0.0304566 0.99935 0.0192987   
     length 2.05315   
     axis 0 0 0   XYZ
    dof rx ry rz
    limits (-20.0 45.0)
           (-30.0 30.0)
           (-30.0 30.0)
  end
  begin
     id 14 
     name lowerneck
     direction -0.0196762 0.99417 0.106017   
     length 1.82056   
     axis 0 0 0   XYZ
    dof rx ry rz
    limits (-20.0 45.0)
           (-30.0 30.0)
           (-30.0 30.0)
  end
  begin
     id 15 
     name upperneck
     direction 0.00517787 0.9802 -0.197944   
     length 1.83835   
     axis 0 0 0   XYZ
    dof rx ry rz
    limits (-20.0 45.0)
           (-30.0 30.0)
           (-30.0 30.0)
  end
  begin
     id 16
     name head
     direction 0.00211419 0.996945 -0.078081  
     length 1.85629  
     axis 0 0 0   XYZ
    dof rx ry rz
    limits (-20.0 45.0)
           (-30.0 30.0)
           (-30.0 30.0)
  end
  begin
     id 17 
     name lclavicle
     direction 0.930001 0.365811 -0.0357824  
     length 3.81961  
     axis 0 0 0   XYZ
    dof ry rz
    limits (-20.0 10.0)
           (0.0 20.0)
  end
  begin
     id 18 
     name lhumerus
     direction 1 -4.48968e-011 -3.06644e-027   
     length 5.14507   
     axis 180 -30 -90   XYZ
    dof rx ry rz
    limits (-60.0 90.0)
           (-90.0 90.0)
           (-90.0 90.0)
  end
  begin
     id 19
     name lradius
     direction 1 -4.48965e-011 9.06925e-028   
     length 3.50646   
     axis 180 -30 -90   XYZ
    dof rx
    limits (-10.0 170.0)
  end
  begin
     id 20
     name lwrist
     direction 1 -4.48957e-011 1.03922e-027   
     length 1.75323   
     axis -2.56395e-016 90 90   XYZ
    dof ry
    limits (-180.0 0.0)
 end
  begin
     id 21 
     name lhand
     direction 1 -4.48967e-011 2.08017e-027   
     length 0.629969   
     axis -1.32723e-015 90 90   XYZ
    dof rx rz
    limits (-90.0 90.0)
           (-45.0 45.0)
  end
  begin
     id 22 
     name lfingers
     direction 1 -4.49089e-011 4.20095e-027   
     length 0.507897   
     axis -2.6545e-015 90 90   XYZ
    dof rx
    limits (0.0 90.0)
  end
  begin
     id 23
     name lthumb
     direction 0.707107 -6.35001e-011 0.707107   
     length 0.729241   
     axis -90 45 5.05613e-014   XYZ
    dof rx rz
    limits (-45.0 45.0)
           (-45.0 45.0)
  end
  begin
     id 24 
     name rclavicle
     direction -0.881882 0.464123 -0.0829113   
     length 3.47515  
     axis 0 0 0   XYZ 
    dof ry rz
    limits (-10.0 20.0)
           (-20.0 0.0)
  end
  begin
     id 25 
     name rhumerus
     direction -1 -4.48961e-011 -1.55672e-027  
     length 5.232   
     axis 180 30 90   XYZ
    dof rx ry rz
    limits (-90.0 60.0)
           (-90.0 90.0)
           (-90.0 90.0)
  end
  begin
     id 26 
     name rradius
     direction -1 -4.48963e-011 6.18178e-029   
     length 3.65641   
     axis 180 30 90   XYZ
    dof rx
    limits (-10.0 170.0)
  end
  begin
     id 27 
     name rwrist
     direction -1 -4.48982e-011 1.04136e-027   
     length 1.8282   
     axis -2.56395e-016 -90 -90   XYZ
    dof ry
    limits (-180.0 0.0)
  end
  begin
     id 28
     name rhand
     direction -1 -4.48929e-011 2.07378e-027   
     length 0.656807   
     axis -1.32723e-015 -90 -90   XYZ
    dof rx rz
    limits (-90.0 90.0)
           (-45.0 45.0)
  end
  begin
     id 29
     name rfingers
     direction -1 -4.489e-011 4.13816e-027   
     length 0.529535   
     axis -2.6545e-015 -90 -90   XYZ
    dof rx
    limits (0.0 90.0)
  end
  begin
     id 30
     name rthumb
     direction -0.707107 -6.34843e-011 0.707107   
     length 0.760309   
     axis -90 -45 -5.05613e-014   XYZ
    dof rx rz
    limits (-45.0 45.0)
           (-45.0 45.0)
  end
:hierarchy
  begin
    root lhipjoint rhipjoint lowerback
    lhipjoint lfemur
    lfemur ltibia
    ltibia lfoot
    lfoot ltoes
    rhipjoint rfemur
    rfemur rtibia
    rtibia rfoot
    rfoot rtoes
    lowerback upperback
    upperback thorax
    thorax lowerneck lclavicle rclavicle
    lowerneck upperneck
    upperneck head
    lclavicle lhumerus
    lhumerus lradius
    lradius lwrist
    lwrist lhand lthumb
    lhand lfingers
    rclavicle rhumerus
    rhumerus rradius
    rradius rwrist
    rwrist rhand rthumb
    rhand rfingers
  end

#!OML:ASF H:\ManfredETheater\Project 1\Capture day 1\Session 1\subject.ASF
:FULLY-SPECIFIED
:DEGREES
46
root 8.30538 16.2909 -22.7274 12.98 -18.3736 16.2926
lowerback 19.2157 0.758488 -10.3397
upperback 1.18033 -1.82462 -5.4324
thorax -9.40662 -0.572162 0.383101
lowerneck -12.6793 -10.7128 -13.2931
upperneck 1.75002 -13.0999 12.6245
head 4.2856 -6.10995 4.88616
rclavicle -2.75814e-015 -3.27001e-014
rhumerus -43.1316 0.0710836 -88.5446
rradius 77.0633
rwrist -18.0654
rhand -34.4275 8.02535
rfingers 7.12502
rthumb -7.59221 -21.8184
lclavicle -2.75814e-015 -3.27001e-014
lhumerus -45.0901 5.12968 70.4577
lradius 67.3909
lwrist 9.8352
lhand -21.7431 -9.70986
lfingers 7.12502
lthumb 4.65688 20.219
rfemur -42.8861 -17.3454 40.4075
rtibia 51.7169
rfoot -17.89 -8.40798
rtoes -5.20408
lfemur -27.169 -0.89844 -14.0223
ltibia 90.5772
lfoot 6.67236 -0.832964
ltoes -2.23237
47
root 8.1091 16.2178 -22.217 12.9877 -19.6846 15.1098
lowerback 19.1894 0.975414 -9.63998
upperback 1.02538 -1.38174 -5.22536
thorax -9.60834 -0.37822 0.101185
lowerneck -12.9343 -10.4708 -12.8204
upperneck 1.92895 -12.8019 12.2679
head 4.28576 -5.96343 4.72816
rclavicle 2.93953e-014 1.75427e-014
rhumerus -40.6442 1.33578 -88.9178
rradius 79.7475
rwrist -17.6275
rhand -34.4659 8.21206
rfingers 7.12502
rthumb -7.62931 -21.6303
lclavicle 2.93953e-014 1.75427e-014
lhumerus -48.138 5.09858 68.4392
lradius 66.1202
lwrist 8.68744
lhand -21.372 -9.81939
lfingers 7.12502
lthumb 5.01521 20.1013
rfemur -39.4004 -16.6355 40.5935
rtibia 51.1228
rfoot -19.5591 -8.4186
rtoes -6.4521
lfemur -30.8184 0.56701 -12.1767
ltibia 94.2199
lfoot 4.40405 0.655461
ltoes -1.19821
48
root 7.91834 16.1404 -21.7079 13.1495 -20.9696 13.8878
lowerback 19.0951 1.14798 -8.84475
upperback 0.871988 -0.965115 -5.02582
thorax -9.7621 -0.204371 -0.237301
lowerneck -13.2046 -10.2127 -12.3384
upperneck 2.00211 -12.4803 11.9523
head 4.25847 -5.80453 4.58506
rclavicle 1.85677e-014 5.46658e-016
rhumerus -38.2295 2.86312 -89.2214
rradius 82.7366
rwrist -16.8798
rhand -34.367 8.48309
rfingers 7.12502
rthumb -7.53377 -21.3627
lclavicle 1.85677e-014 5.46658e-016
lhumerus -51.44 4.32027 66.9217
lradius 65.7996
lwrist 7.87136
lhand -20.8358 -9.98559
lfingers 7.12502
lthumb 5.53288 19.9222
rfemur -35.9912 -15.6734 40.7125
rtibia 50.4301
rfoot -21.079 -8.53932
rtoes -8.59506
lfemur -34.7879 1.92454 -10.3807
ltibia 97.4232
lfoot 2.19723 1.97651
ltoes -0.178039
49
root 7.72978 16.0614 -21.198 13.4404 -22.1897 12.6679
lowerback 18.9265 1.29055 -7.99664
upperback 0.730111 -0.566106 -4.83766
thorax -9.8518 -0.0448715 -0.61364
lowerneck -13.4559 -9.96304 -11.8871
upperneck 1.97129 -12.1678 11.7011
head 4.20672 -5.64981 4.46741
rclavicle -3.21783e-015 -1.66482e-015
rhumerus -35.9353 4.53966 -89.3805
rradius 85.9882
rwrist -15.8788
rhand -34.1782 8.77199
rfingers 7.12502
rthumb -7.35156 -21.0803
lclavicle -3.21783e-015 -1.66482e-015
lhumerus -54.8801 2.94788 66.007
lradius 66.3363
lwrist 7.55105
lhand -20.2135 -10.1532
lfingers 7.12502
lthumb 6.13371 19.738
rfemur -32.6567 -14.5711 40.8068
rtibia 49.6022
rfoot -22.3064 -8.70879
rtoes -10.7733
lfemur -39.0331 3.11571 -8.68996
ltibia 100.082
lfoot 0.114174 2.9948
ltoes 0.549719
50
root 7.53851 15.9851 -20.6851 13.8043 -23.303 11.5251
lowerback 18.6861 1.42079 -7.1579
upperback 0.612874 -0.178406 -4.67264
thorax -9.86383 0.106219 -1.0058
lowerneck -13.6629 -9.75091 -11.5005
upperneck 1.85748 -11.9023 11.5211
head 4.13896 -5.51845 4.37857
rclavicle -2.8128e-014 -1.28216e-014
rhumerus -33.7985 6.2397 -89.3288
rradius 89.4385
rwrist -14.7742
rhand -33.9205 9.06971
rfingers 7.12502
rthumb -7.10281 -20.7911
lclavicle -2.8128e-014 -1.28216e-014
lhumerus -58.3366 1.17965 65.7166
lradius 67.5816
lwrist 7.78787
lhand -19.529 -10.2872
lfingers 7.12502
lthumb 6.79447 19.5838
rfemur -29.3699 -13.4257 40.8461
rtibia 48.5891
rfoot -23.2472 -8.88894
rtoes -12.8765
lfemur -43.4666 4.06593 -7.18704
ltibia 102.075
lfoot -1.76813 3.61505
ltoes 0.882204
51
root 7.33816 15.9174 -20.1669 14.1701 -24.2748 10.5268
lowerback 18.3856 1.55569 -6.38193
upperback 0.535437 0.20495 -4.54026
thorax -9.78866 0.255337 -1.3941
lowerneck -13.8157 -9.60525 -11.2064
upperneck 1.69496 -11.7202 11.4096
head 4.06846 -5.42848 4.31775
rclavicle -8.71919e-014 -3.598e-014
rhumerus -31.855 7.84662 -89.0233
rradius 93.0326
rwrist -13.747
rhand -33.6559 9.36751
rfingers 7.12502
rthumb -6.84736 -20.5018
lclavicle -8.71919e-014 -3.598e-014
lhumerus -61.6951 -0.787179 65.9954
lradius 69.3493
lwrist 8.53812
lhand -18.8537 -10.4586
lfingers 7.12502
lthumb 7.44635 19.3904
rfemur -26.0715 -12.308 40.7891
rtibia 47.3224
rfoot -23.8329 -9.10433
rtoes -15.1758
lfemur -47.9461 4.7093 -5.93025
ltibia 103.278
lfoot -3.409 3.78984
ltoes 0.772827
